<svg width="246" height="221" viewBox="0 0 246 221" fill="none" xmlns="http://www.w3.org/2000/svg">
<path fill-rule="evenodd" clip-rule="evenodd" d="M127.658 27.0112C165.288 19.6826 210.137 -17.4493 236.968 9.93365C263.872 37.3916 222.535 81.0627 218.026 119.238C214.517 148.941 234.105 183.42 213.875 205.451C193.467 227.676 157.709 220.371 127.658 217.652C101.208 215.258 76.7819 207.357 55.7498 191.142C30.7808 171.893 0.386038 150.763 0.00380424 119.238C-0.379888 87.5936 28.3314 64.1034 53.9848 45.5694C75.3244 30.152 101.816 32.0437 127.658 27.0112Z" fill="white"/>
<path d="M48.896 138.32C47.232 137.851 45.8667 136.827 44.8 135.248C43.7333 133.669 42.9867 132.005 42.56 130.256C42.4747 129.872 42.56 129.232 42.816 128.336C43.1147 127.44 43.52 126.501 44.032 125.52C44.5867 124.539 45.2053 123.749 45.888 123.152C46.144 123.792 46.4853 124.368 46.912 124.88C47.3387 125.392 47.808 125.712 48.32 125.84C48.832 125.968 49.3013 125.776 49.728 125.264C50.0693 124.795 50.304 123.813 50.432 122.32C50.6027 120.827 50.6667 118.992 50.624 116.816C50.624 114.597 50.56 112.229 50.432 109.712C50.304 107.195 50.1547 104.699 49.984 102.224C49.8133 99.7067 49.6213 97.4027 49.408 95.312C49.2373 93.1787 49.0667 91.4293 48.896 90.064C48.768 88.656 48.6827 87.8027 48.64 87.504C49.28 87.376 50.2613 87.3547 51.584 87.44C52.9493 87.4827 54.3787 87.696 55.872 88.08C57.3653 88.4213 58.6667 89.0187 59.776 89.872C60.8853 90.6827 61.5253 91.8133 61.696 93.264C61.7813 94.0747 61.8453 95.44 61.888 97.36C61.9733 99.28 62.0373 101.52 62.08 104.08C62.1227 106.597 62.144 109.243 62.144 112.016C62.1867 114.747 62.1867 117.371 62.144 119.888C62.144 122.405 62.1227 124.603 62.08 126.48C62.0373 128.357 61.9733 129.659 61.888 130.384C61.7173 132.219 60.992 133.861 59.712 135.312C58.4747 136.72 56.896 137.723 54.976 138.32C53.0987 138.917 51.072 138.917 48.896 138.32ZM106.862 125.968C107.374 127.205 108.099 128.4 109.038 129.552C109.977 130.661 110.787 131.493 111.47 132.048C110.446 134.181 109.187 135.739 107.694 136.72C106.457 137.531 105.134 138 103.726 138.128C102.958 138.213 102.083 138.149 101.102 137.936C100.121 137.723 99.0967 137.125 98.03 136.144C97.006 135.12 95.982 133.499 94.958 131.28C94.6593 130.555 93.998 130.043 92.974 129.744C91.95 129.445 90.862 129.275 89.71 129.232C88.558 129.147 87.6193 129.104 86.894 129.104C86.1687 129.104 85.2727 129.125 84.206 129.168C83.182 129.211 82.2433 129.381 81.39 129.68C80.5367 129.979 80.0247 130.512 79.854 131.28C79.6833 131.963 79.662 132.667 79.79 133.392C79.918 134.117 80.1953 134.587 80.622 134.8C79.8967 135.483 79.1713 136.08 78.446 136.592C77.7633 137.104 77.0593 137.509 76.334 137.808C75.438 138.192 74.4993 138.384 73.518 138.384C72.5793 138.384 71.5127 138.171 70.318 137.744C69.7633 137.531 69.1873 137.147 68.59 136.592C67.9927 136.037 67.5873 135.269 67.374 134.288C67.1607 133.307 67.3313 132.069 67.886 130.576C67.9287 130.448 68.142 129.765 68.526 128.528C68.91 127.291 69.4007 125.669 69.998 123.664C70.638 121.616 71.3207 119.355 72.046 116.88C72.814 114.405 73.582 111.867 74.35 109.264C75.1607 106.619 75.9287 104.08 76.654 101.648C77.422 99.216 78.1047 97.0187 78.702 95.056C79.2993 93.0933 79.7687 91.536 80.11 90.384C80.4513 89.232 80.622 88.656 80.622 88.656C81.006 88.4427 81.71 88.1867 82.734 87.888C83.8007 87.5467 84.9313 87.3547 86.126 87.312C87.4487 87.2267 88.7287 87.3973 89.966 87.824C91.246 88.2507 92.2273 89.104 92.91 90.384C93.2087 90.896 93.6567 91.8773 94.254 93.328C94.8513 94.7787 95.5553 96.528 96.366 98.576C97.1767 100.624 98.03 102.821 98.926 105.168C99.822 107.472 100.697 109.776 101.55 112.08C102.446 114.341 103.257 116.453 103.982 118.416C104.707 120.379 105.326 122.043 105.838 123.408C106.35 124.731 106.691 125.584 106.862 125.968ZM86.702 117.712C87.8113 117.627 88.4513 117.307 88.622 116.752C88.8353 116.197 88.9633 115.557 89.006 114.832C89.006 114.363 88.9207 113.787 88.75 113.104C88.622 112.421 88.4087 111.824 88.11 111.312C87.854 110.757 87.5127 110.48 87.086 110.48C86.4887 110.48 85.8273 110.907 85.102 111.76C84.4193 112.571 84.0353 113.403 83.95 114.256C83.822 115.067 83.886 115.856 84.142 116.624C84.4407 117.392 85.294 117.755 86.702 117.712ZM155.152 99.6C154.64 101.179 153.851 102.331 152.784 103.056C151.717 103.781 150.608 104.08 149.456 103.952C148.304 103.781 147.323 103.205 146.512 102.224C147.237 101.669 147.451 101.072 147.152 100.432C146.896 99.7493 146.235 99.1947 145.168 98.768C144.101 98.2987 142.736 98.128 141.072 98.256C139.365 98.3413 137.637 98.896 135.888 99.92C134.181 100.944 132.752 102.416 131.6 104.336C130.448 106.256 129.808 108.645 129.68 111.504C129.552 114.448 129.851 116.837 130.576 118.672C131.301 120.507 132.197 121.915 133.264 122.896C134.373 123.835 135.483 124.517 136.592 124.944C137.701 125.328 138.597 125.584 139.28 125.712C140.176 125.883 141.2 126.011 142.352 126.096C143.547 126.139 144.741 126.053 145.936 125.84C147.131 125.627 148.155 125.264 149.008 124.752C149.776 124.283 150.736 123.664 151.888 122.896C153.04 122.085 154.149 121.189 155.216 120.208C156.283 119.227 157.072 118.224 157.584 117.2C159.035 118.181 159.931 119.568 160.272 121.36C160.656 123.152 160.507 125.072 159.824 127.12C159.141 129.168 157.947 131.109 156.24 132.944C154.576 134.736 152.4 136.208 149.712 137.36C147.024 138.469 143.845 138.981 140.176 138.896C138.469 138.853 136.507 138.533 134.288 137.936C132.112 137.339 129.915 136.4 127.696 135.12C125.477 133.797 123.451 132.069 121.616 129.936C119.824 127.76 118.459 125.072 117.52 121.872C116.581 118.672 116.325 114.896 116.752 110.544C117.136 106.405 118.16 102.843 119.824 99.856C121.531 96.8693 123.6 94.4373 126.032 92.56C128.507 90.64 131.109 89.2107 133.84 88.272C136.613 87.2907 139.259 86.7787 141.776 86.736C144.293 86.6507 146.469 87.0347 148.304 87.888C150.181 88.7413 151.696 89.8507 152.848 91.216C154 92.5387 154.768 93.968 155.152 95.504C155.579 96.9973 155.579 98.3627 155.152 99.6ZM202.296 127.184C204.173 128.933 205.795 130.064 207.16 130.576C207.032 131.088 206.755 131.771 206.328 132.624C205.944 133.477 205.432 134.331 204.792 135.184C204.195 136.037 203.491 136.763 202.68 137.36C201.869 137.957 200.973 138.277 199.992 138.32C198.797 138.363 197.709 138.235 196.728 137.936C195.789 137.595 194.787 137.04 193.72 136.272C192.909 135.632 191.949 134.821 190.84 133.84C189.773 132.816 188.728 131.771 187.704 130.704C186.68 129.637 185.869 128.741 185.272 128.016C184.419 126.907 183.501 125.968 182.52 125.2C181.539 124.432 180.451 124.133 179.256 124.304C178.573 124.347 178.147 124.539 177.976 124.88C177.848 125.179 177.72 125.797 177.592 126.736C177.507 127.376 177.485 128.144 177.528 129.04C177.571 129.893 177.635 130.704 177.72 131.472C177.848 132.24 177.912 132.795 177.912 133.136C177.912 133.904 178.061 134.501 178.36 134.928C178.659 135.312 178.957 135.675 179.256 136.016C178.531 136.571 177.4 137.168 175.864 137.808C174.328 138.448 172.621 138.768 170.744 138.768C169.507 138.768 168.525 138.277 167.8 137.296C167.117 136.315 166.627 135.12 166.328 133.712C166.029 132.304 165.859 130.939 165.816 129.616C165.816 129.232 165.795 128.187 165.752 126.48C165.752 124.773 165.731 122.661 165.688 120.144C165.688 117.584 165.688 114.853 165.688 111.952C165.688 109.008 165.667 106.107 165.624 103.248C165.624 100.347 165.603 97.7227 165.56 95.376C165.56 92.9867 165.56 91.088 165.56 89.68C165.56 88.2293 165.56 87.504 165.56 87.504C166.029 87.4187 166.84 87.3973 167.992 87.44C169.187 87.4827 170.424 87.6747 171.704 88.016C173.155 88.3573 174.477 88.9333 175.672 89.744C176.909 90.5547 177.613 91.728 177.784 93.264C177.869 94.2453 177.912 95.056 177.912 95.696C177.955 96.336 177.976 96.9973 177.976 97.68C177.976 99.9413 178.531 101.371 179.64 101.968C180.877 102.608 182.563 102.181 184.696 100.688C185.037 100.432 185.635 99.9413 186.488 99.216C187.341 98.448 188.323 97.552 189.432 96.528C190.541 95.504 191.693 94.4373 192.888 93.328C194.083 92.2187 195.171 91.1947 196.152 90.256C197.176 89.2747 198.008 88.4853 198.648 87.888C199.288 87.2907 199.608 86.992 199.608 86.992C199.992 87.2907 200.525 87.9947 201.208 89.104C201.933 90.2133 202.573 91.4507 203.128 92.816C203.683 94.1813 204.024 95.5893 204.152 97.04C204.323 98.448 204.045 99.6213 203.32 100.56C203.021 100.944 202.531 101.456 201.848 102.096C201.208 102.736 200.483 103.419 199.672 104.144C198.904 104.827 198.157 105.488 197.432 106.128C196.707 106.725 196.152 107.195 195.768 107.536C194.957 108.219 194.275 109.072 193.72 110.096C193.208 111.077 192.888 112.101 192.76 113.168C192.632 114.235 192.675 115.301 192.888 116.368C193.101 117.435 193.571 118.416 194.296 119.312C194.808 119.909 195.576 120.72 196.6 121.744C197.624 122.725 198.669 123.728 199.736 124.752C200.803 125.733 201.656 126.544 202.296 127.184Z" fill="#416790"/>
</svg>
